<?xml version="1.0" standalone="no"?>
<!DOCTYPE svg PUBLIC "-//W3C//DTD SVG 20010904//EN"
 "http://www.w3.org/TR/2001/REC-SVG-20010904/DTD/svg10.dtd">
<svg version="1.0" xmlns="http://www.w3.org/2000/svg"
 width="400.000000pt" height="400.000000pt" viewBox="0 0 400.000000 400.000000"
 preserveAspectRatio="xMidYMid meet">
<metadata>
Created by potrace 1.14, written by Peter Selinger 2001-2017
</metadata>
<g transform="translate(0.000000,400.000000) scale(0.100000,-0.100000)"
fill="#000000" stroke="none">
<path d="M1828 3995 c-1 -1 -28 -5 -58 -8 -30 -4 -93 -14 -140 -23 -47 -9 -96
-18 -109 -21 -142 -26 -454 -164 -621 -274 -171 -112 -355 -279 -460 -418 -14
-18 -35 -45 -46 -59 -96 -120 -232 -381 -290 -556 -19 -59 -37 -116 -39 -125
-38 -177 -39 -184 -52 -286 -12 -94 -8 -411 6 -505 72 -463 280 -864 610
-1174 29 -28 59 -56 65 -62 37 -36 208 -158 287 -204 143 -85 400 -194 502
-214 12 -2 45 -10 72 -16 146 -34 252 -45 445 -45 202 0 230 3 470 50 44 8
192 56 270 87 342 135 675 396 882 691 32 45 61 87 65 92 19 25 59 99 113 210
97 197 157 402 187 640 12 95 8 412 -6 505 -63 401 -233 767 -491 1054 -203
226 -477 417 -750 524 -79 31 -193 70 -226 77 -135 29 -218 45 -259 50 -52 7
-421 16 -427 10z"/>
</g>
</svg>
