<?xml version="1.0" encoding="UTF-8" standalone="no"?>
<!-- Created with Inkscape (http://www.inkscape.org/) -->

<svg
   width="210mm"
   height="297mm"
   viewBox="0 0 210 297"
   version="1.1"
   id="svg5"
   inkscape:version="1.1.2 (b8e25be833, 2022-02-05)"
   sodipodi:docname="cactus.svg"
   xmlns:inkscape="http://www.inkscape.org/namespaces/inkscape"
   xmlns:sodipodi="http://sodipodi.sourceforge.net/DTD/sodipodi-0.dtd"
   xmlns="http://www.w3.org/2000/svg"
   xmlns:svg="http://www.w3.org/2000/svg">
  <sodipodi:namedview
     id="namedview7"
     pagecolor="#ffffff"
     bordercolor="#666666"
     borderopacity="1.0"
     inkscape:pageshadow="2"
     inkscape:pageopacity="0.0"
     inkscape:pagecheckerboard="0"
     inkscape:document-units="mm"
     showgrid="false"
     inkscape:lockguides="true"
     inkscape:zoom="0.98137122"
     inkscape:cx="258.31204"
     inkscape:cy="534.45627"
     inkscape:window-width="1920"
     inkscape:window-height="1001"
     inkscape:window-x="-9"
     inkscape:window-y="-9"
     inkscape:window-maximized="1"
     inkscape:current-layer="layer1" />
  <defs
     id="defs2" />
  <g
     inkscape:label="Layer 1"
     inkscape:groupmode="layer"
     id="layer1">
    <path
       id="rect7556"
       style="fill:#00a700;stroke:#000000;stroke-width:0.205638;stroke-linecap:square"
       d="m 43.630127,123.71027 c -2.280113,0 -4.116027,1.8354 -4.116027,4.11551 v 49.68069 h -4.932516 v -25.76122 c 0,-3.83902 -2.267487,-6.92929 -5.083927,-6.92929 -2.816442,0 -5.083927,3.09027 -5.083927,6.92929 v 29.02252 c 0,0.12102 0.0023,0.24124 0.0067,0.3607 -0.01921,0.16193 -0.02997,0.32625 -0.02997,0.49351 v 1.98334 c 0,2.2801 1.835406,4.11551 4.115511,4.11551 H 39.5141 v 17.33435 c 0,2.28011 1.835914,4.11602 4.116027,4.11602 h 3.163115 c 2.280113,0 4.116028,-1.83591 4.116028,-4.11602 v -48.47405 h 6.40271 v 25.76122 c 0,3.83902 2.267487,6.92929 5.083926,6.92929 2.816442,0 5.083929,-3.09027 5.083929,-6.92929 v -29.02252 c 0,-0.12102 -0.0023,-0.24124 -0.0067,-0.3607 0.01921,-0.16193 0.02997,-0.32625 0.02997,-0.49351 v -1.98334 c 0,-2.2801 -1.835404,-4.11551 -4.115512,-4.11551 H 50.90927 v -18.54099 c 0,-2.28011 -1.835915,-4.11551 -4.116028,-4.11551 z" />
    <circle
       style="fill:#000000;fill-opacity:1;stroke:#000000;stroke-width:0.264999;stroke-linecap:square;stroke-linejoin:miter;stroke-miterlimit:4;stroke-dasharray:none;stroke-opacity:1"
       id="path8192"
       cx="42.591312"
       cy="149.4281"
       r="1.1946163" />
    <circle
       style="fill:#000000;fill-opacity:1;stroke:#000000;stroke-width:0.264999;stroke-linecap:square;stroke-linejoin:miter;stroke-miterlimit:4;stroke-dasharray:none;stroke-opacity:1"
       id="path8192-7"
       cx="48.019157"
       cy="149.4281"
       r="1.1946163" />
    <path
       style="fill:#000000;fill-opacity:1;stroke:#000000;stroke-width:0.264999;stroke-linecap:square;stroke-linejoin:miter;stroke-miterlimit:4;stroke-dasharray:none;stroke-opacity:1"
       id="path8721"
       sodipodi:type="arc"
       sodipodi:cx="45.470509"
       sodipodi:cy="153.01482"
       sodipodi:rx="3.3415029"
       sodipodi:ry="2.8780558"
       sodipodi:start="0"
       sodipodi:end="3.1415927"
       sodipodi:arc-type="slice"
       d="m 48.812011,153.01482 a 3.3415029,2.8780558 0 0 1 -1.670751,2.49247 3.3415029,2.8780558 0 0 1 -3.341503,0 3.3415029,2.8780558 0 0 1 -1.670751,-2.49247 h 3.341503 z" />
    <path
       style="fill:none;stroke:#000000;stroke-width:0.264583px;stroke-linecap:butt;stroke-linejoin:miter;stroke-opacity:1"
       d="m 28.590568,152.17979 0.909698,3.6388"
       id="path8918" />
    <path
       style="fill:none;stroke:#000000;stroke-width:0.264583px;stroke-linecap:butt;stroke-linejoin:miter;stroke-opacity:1"
       d="m 27.16104,159.7173 -0.389872,3.89872"
       id="path8920" />
    <path
       style="fill:none;stroke:#000000;stroke-width:0.264583px;stroke-linecap:butt;stroke-linejoin:miter;stroke-opacity:1"
       d="m 32.229366,157.24812 -0.779743,3.24893"
       id="path8922" />
    <path
       style="fill:none;stroke:#000000;stroke-width:0.264583px;stroke-linecap:butt;stroke-linejoin:miter;stroke-opacity:1"
       d="m 29.890138,163.48606 0.909701,4.02867"
       id="path8924" />
    <path
       style="fill:none;stroke:#000000;stroke-width:0.264583px;stroke-linecap:butt;stroke-linejoin:miter;stroke-opacity:1"
       d="m 28.590568,169.07422 -0.779743,4.80841"
       id="path8926" />
    <path
       style="fill:none;stroke:#000000;stroke-width:0.264583px;stroke-linecap:butt;stroke-linejoin:miter;stroke-opacity:1"
       d="m 30.409967,147.76125 1.429528,3.89871"
       id="path8928" />
    <path
       style="fill:none;stroke:#000000;stroke-width:0.264583px;stroke-linecap:butt;stroke-linejoin:miter;stroke-opacity:1"
       d="M 31.319668,173.75267 30.929797,178.821"
       id="path8930" />
    <path
       style="fill:none;stroke:#000000;stroke-width:0.264583px;stroke-linecap:butt;stroke-linejoin:miter;stroke-opacity:1"
       d="m 28.330652,180.90032 1.299572,3.76875"
       id="path8932" />
    <path
       style="fill:none;stroke:#000000;stroke-width:0.264583px;stroke-linecap:butt;stroke-linejoin:miter;stroke-opacity:1"
       d="m 34.438637,181.42014 -0.909698,3.89872"
       id="path8934" />
    <path
       style="fill:none;stroke:#000000;stroke-width:0.264583px;stroke-linecap:butt;stroke-linejoin:miter;stroke-opacity:1"
       d="m 37.94748,181.81001 0.519827,3.37889"
       id="path8936" />
    <path
       style="fill:none;stroke:#000000;stroke-width:0.264583px;stroke-linecap:butt;stroke-linejoin:miter;stroke-opacity:1"
       d="m 45.874865,178.43113 -0.129958,4.02867"
       id="path8938" />
    <path
       style="fill:none;stroke:#000000;stroke-width:0.264583px;stroke-linecap:butt;stroke-linejoin:miter;stroke-opacity:1"
       d="m 40.676581,180.25053 1.819399,2.85906"
       id="path8942" />
    <path
       style="fill:none;stroke:#000000;stroke-width:0.264583px;stroke-linecap:butt;stroke-linejoin:miter;stroke-opacity:1"
       d="m 43.79555,187.918 -0.779743,3.50884"
       id="path8944" />
    <path
       style="fill:none;stroke:#000000;stroke-width:0.264583px;stroke-linecap:butt;stroke-linejoin:miter;stroke-opacity:1"
       d="m 47.684994,188.30868 -0.746734,4.70504"
       id="path8946" />
    <path
       style="fill:none;stroke:#000000;stroke-width:0.264583px;stroke-linecap:butt;stroke-linejoin:miter;stroke-opacity:1"
       d="m 43.37859,195.5946 c 0,0 1.022229,4.17581 0.964229,4.34981"
       id="path8948" />
    <path
       style="fill:none;stroke:#000000;stroke-width:0.264583px;stroke-linecap:butt;stroke-linejoin:miter;stroke-opacity:1"
       d="m 47.460249,200.05315 c 0.029,-0.69597 -1.464466,4.13956 -1.464466,4.13956"
       id="path8950" />
    <path
       style="fill:none;stroke:#000000;stroke-width:0.264583px;stroke-linecap:butt;stroke-linejoin:miter;stroke-opacity:1"
       d="m 43.349592,167.34262 -1.623965,4.74129"
       id="path8952" />
    <path
       style="fill:none;stroke:#000000;stroke-width:0.264583px;stroke-linecap:butt;stroke-linejoin:miter;stroke-opacity:1"
       d="m 46.778764,168.57506 -1.950207,3.66834"
       id="path8954" />
    <path
       style="fill:none;stroke:#000000;stroke-width:0.264583px;stroke-linecap:butt;stroke-linejoin:miter;stroke-opacity:1"
       d="m 41.892373,160.60767 0.920731,3.58134"
       id="path8956" />
    <path
       style="fill:none;stroke:#000000;stroke-width:0.264583px;stroke-linecap:butt;stroke-linejoin:miter;stroke-opacity:1"
       d="m 46.528865,160.08496 c 0.297045,0.22936 -0.785857,3.63216 -0.936262,3.78256"
       id="path8960" />
    <path
       style="fill:none;stroke:#000000;stroke-width:0.264583px;stroke-linecap:butt;stroke-linejoin:miter;stroke-opacity:1"
       d="m 53.541419,149.39153 c 0.323365,0.0865 0.142883,2.98168 0.195524,3.02304"
       id="path8962" />
    <path
       style="fill:none;stroke:#000000;stroke-width:0.264583px;stroke-linecap:butt;stroke-linejoin:miter;stroke-opacity:1"
       d="m 57.933195,149.33137 c 0,0 -0.225605,3.00048 -0.353449,3.2712"
       id="path8964" />
    <path
       style="fill:none;stroke:#000000;stroke-width:0.264583px;stroke-linecap:butt;stroke-linejoin:miter;stroke-opacity:1"
       d="m 61.768479,150.77897 c -0.274487,0.0263 1.263388,3.15088 1.263388,3.15088"
       id="path8966" />
    <path
       style="fill:none;stroke:#000000;stroke-width:0.264583px;stroke-linecap:butt;stroke-linejoin:miter;stroke-opacity:1"
       d="m 61.381189,155.76849 c 0,0 -1.725877,3.0456 -1.564192,3.12455"
       id="path8968" />
    <path
       style="fill:none;stroke:#000000;stroke-width:0.264583px;stroke-linecap:butt;stroke-linejoin:miter;stroke-opacity:1"
       d="m 63.347713,158.22377 0.199284,5.47831"
       id="path8970" />
    <path
       style="fill:none;stroke:#000000;stroke-width:0.264583px;stroke-linecap:butt;stroke-linejoin:miter;stroke-opacity:1"
       d="m 61.272149,162.18304 -1.436351,4.0232"
       id="path8972" />
    <path
       style="fill:none;stroke:#000000;stroke-width:0.264583px;stroke-linecap:butt;stroke-linejoin:miter;stroke-opacity:1"
       d="m 59.482349,168.38328 1.507794,4.06832"
       id="path8974" />
    <path
       style="fill:none;stroke:#000000;stroke-width:0.264583px;stroke-linecap:butt;stroke-linejoin:miter;stroke-opacity:1"
       d="m 64.355416,167.338 c 0.120322,-0.0827 -0.849779,3.37272 -0.853538,3.4592"
       id="path8976" />
    <path
       style="fill:none;stroke:#000000;stroke-width:0.264583px;stroke-linecap:butt;stroke-linejoin:miter;stroke-opacity:1"
       d="m 60.110282,175.01215 c 0,0 0.236887,3.1396 0.334648,3.45168"
       id="path8978" />
    <path
       style="fill:none;stroke:#000000;stroke-width:0.264583px;stroke-linecap:butt;stroke-linejoin:miter;stroke-opacity:1"
       d="m 64.182452,175.71903 c 0.308327,-0.39104 -0.96258,3.36144 -0.96258,3.36144"
       id="path8980" />
    <path
       style="fill:none;stroke:#000000;stroke-width:0.264583px;stroke-linecap:butt;stroke-linejoin:miter;stroke-opacity:1"
       d="m 61.629355,182.59231 c 0,0 0.330888,3.4592 0.631696,3.51184"
       id="path8982" />
    <path
       style="fill:none;stroke:#000000;stroke-width:0.264583px;stroke-linecap:butt;stroke-linejoin:miter;stroke-opacity:1"
       d="m 42.415335,126.79952 c 0.03008,0.27071 2.455333,4.65111 2.455333,4.65111"
       id="path8984" />
    <path
       style="fill:none;stroke:#000000;stroke-width:0.264583px;stroke-linecap:butt;stroke-linejoin:miter;stroke-opacity:1"
       d="m 41.862602,138.00807 c 0.45497,-0.0714 0.635455,3.40656 0.703136,3.45544"
       id="path8988" />
    <path
       style="fill:none;stroke:#000000;stroke-width:0.264583px;stroke-linecap:butt;stroke-linejoin:miter;stroke-opacity:1"
       d="m 47.381003,134.59887 c 0.08648,-0.0564 -1.451393,3.39904 -1.451393,3.39904"
       id="path8990" />
    <path
       style="fill:none;stroke:#000000;stroke-width:0.264583px;stroke-linecap:butt;stroke-linejoin:miter;stroke-opacity:1"
       d="m 48.228421,126.64159 -1.255868,3.39904"
       id="path8992" />
    <path
       style="fill:none;stroke:#000000;stroke-width:0.264583px;stroke-linecap:butt;stroke-linejoin:miter;stroke-opacity:1"
       d="m 48.232181,141.43343 -1.786038,3.43287"
       id="path8994" />
    <path
       style="fill:none;stroke:#000000;stroke-width:0.264583px;stroke-linecap:butt;stroke-linejoin:miter;stroke-opacity:1"
       d="m 41.922763,130.73247 c 0.372248,0.3384 -0.41737,3.78632 -0.06768,3.89536"
       id="path8996" />
  </g>
</svg>
